<svg width="32" height="32" viewBox="0 0 32 32" fill="none" xmlns="http://www.w3.org/2000/svg">
<g clip-path="url(#clip0_1_618)">
<path d="M26.5327 16.7768C24.5408 18.2706 22.1092 19.3078 19.4626 19.8195C19.1954 21.7125 17.5654 23.1737 15.5998 23.1737C13.6341 23.1737 12.0041 21.7125 11.7369 19.8195C9.09035 19.3078 6.6587 18.2706 4.66678 16.7768C1.65719 14.5196 -0.000244141 11.4939 -0.000244141 8.25708V24.8625C-0.000244141 27.3448 2.01929 29.3643 4.50151 29.3643H26.698C29.1802 29.3643 31.1998 27.3448 31.1998 24.8625V8.25708C31.1998 11.4939 29.5423 14.5196 26.5327 16.7768Z" fill="#0033FF"/>
<path d="M11.6976 17.9438V16.2834C11.6976 15.7786 12.1069 15.3694 12.6117 15.3694H18.5878C19.0926 15.3694 19.5019 15.7786 19.5019 16.2834V17.9438C25.2012 16.7067 29.3716 12.8327 29.3716 8.25698V7.34292H22.021V5.5265C22.021 3.49137 20.3653 1.83569 18.3302 1.83569H12.8693C10.8343 1.83569 9.17853 3.49137 9.17853 5.5265V7.34292H1.82788V8.25698C1.82788 12.8327 5.99832 16.7067 11.6976 17.9438ZM11.0066 5.5265C11.0066 4.49939 11.8422 3.66382 12.8693 3.66382H18.3302C19.3572 3.66382 20.1929 4.49939 20.1929 5.5265V7.34292H11.0065V5.5265H11.0066Z" fill="#0033FF"/>
<path d="M17.6738 17.1973H13.5258V19.2713C13.5258 20.4149 14.4563 21.3453 15.5998 21.3453C16.7434 21.3453 17.6738 20.4149 17.6738 19.2713V17.1973Z" fill="#0033FF"/>
</g>
<defs>
<clipPath id="clip0_1_618">
<rect width="31.2" height="31.2" fill="white"/>
</clipPath>
</defs>
</svg>
