<svg width="32" height="32" viewBox="0 0 32 32" fill="none" xmlns="http://www.w3.org/2000/svg">
<g clip-path="url(#clip0_1_608)">
<path d="M30.2858 23.8267H0.913971C0.409165 23.8267 -9.15527e-05 24.2359 -9.15527e-05 24.7407V25.3501C-9.15527e-05 27.2011 1.50043 28.7017 3.35147 28.7017H27.8483C29.6994 28.7017 31.1999 27.2011 31.1999 25.3501V24.7407C31.1999 24.2359 30.7907 23.8267 30.2858 23.8267Z" fill="#0033FF"/>
<path d="M23.0522 14.0767L23.6616 10.4204H16.679L17.2884 14.0767H23.0522Z" fill="#0033FF"/>
<path d="M3.42264 21.9985H27.7772C28.6138 21.9985 29.3068 21.3282 29.3108 20.4916C29.3108 20.4861 29.3108 20.4806 29.3108 20.4751V5.8501C29.3108 3.99906 27.8103 2.49854 25.9593 2.49854H5.24053C3.38949 2.49854 1.88897 3.99906 1.88897 5.8501V20.4751C1.88897 20.4806 1.88897 20.4861 1.88903 20.4916C1.89305 21.3282 2.58603 21.9985 3.42264 21.9985ZM10.7249 17.1235H8.28741C7.7826 17.1235 7.37334 16.7143 7.37334 16.2095C7.37334 15.7047 7.7826 15.2954 8.28741 15.2954H10.7249C11.2297 15.2954 11.639 15.7047 11.639 16.2095C11.639 16.7143 11.2297 17.1235 10.7249 17.1235ZM13.1624 6.76416H15.2952C15.7421 6.76416 16.1234 7.08719 16.1969 7.52795L16.3742 8.59229H24.7405C25.0092 8.59229 25.2644 8.7105 25.438 8.9155C25.6116 9.12055 25.6863 9.39154 25.6422 9.65662L24.7281 15.141C24.6547 15.5818 24.2733 15.9048 23.8265 15.9048H23.5218V16.8188C23.5218 17.3237 23.1125 17.7329 22.6077 17.7329C22.1029 17.7329 21.6937 17.3237 21.6937 16.8188V15.9048H18.6468V16.8188C18.6468 17.3237 18.2375 17.7329 17.7327 17.7329C17.2279 17.7329 16.8187 17.3237 16.8187 16.8188V15.9048H16.514C16.0671 15.9048 15.6858 15.5818 15.6123 15.141L14.5209 8.59229H13.1624C12.6576 8.59229 12.2483 8.18303 12.2483 7.67822C12.2483 7.17342 12.6576 6.76416 13.1624 6.76416ZM8.28741 7.98291H10.7249C11.2297 7.98291 11.639 8.39217 11.639 8.89697C11.639 9.40178 11.2297 9.81104 10.7249 9.81104H8.28741C7.7826 9.81104 7.37334 9.40178 7.37334 8.89697C7.37334 8.39217 7.7826 7.98291 8.28741 7.98291ZM6.45928 11.6392H10.7249C11.2297 11.6392 11.639 12.0484 11.639 12.5532C11.639 13.058 11.2297 13.4673 10.7249 13.4673H6.45928C5.95448 13.4673 5.54522 13.058 5.54522 12.5532C5.54522 12.0484 5.95448 11.6392 6.45928 11.6392Z" fill="#0033FF"/>
</g>
<defs>
<clipPath id="clip0_1_608">
<rect width="31.2" height="31.2" fill="white"/>
</clipPath>
</defs>
</svg>
