<svg width="32" height="32" viewBox="0 0 32 32" fill="none" xmlns="http://www.w3.org/2000/svg">
<g clip-path="url(#clip0_1_648)">
<path d="M9.15527e-05 26.0439C9.15527e-05 26.5487 0.409348 26.9579 0.914154 26.9579H14.686V29.372H10.6434C10.1386 29.372 9.72931 29.7812 9.72931 30.286C9.72931 30.7908 10.1386 31.2 10.6434 31.2H20.5568C21.0616 31.2 21.4709 30.7908 21.4709 30.286C21.4709 29.7811 21.0616 29.372 20.5568 29.372H16.5142V26.9579H30.286C30.7908 26.9579 31.2001 26.5487 31.2001 26.0439C31.2001 26.0439 31.2001 24.7662 31.2001 22.7852H9.15527e-05V26.0439Z" fill="#0033FF"/>
<path d="M8.13058 15.1902H14.6861V20.9572H8.13058V15.1902Z" fill="#0033FF"/>
<path d="M16.5142 0H23.0697V5.767H16.5142V0Z" fill="#0033FF"/>
<path d="M8.13058 7.59497H14.6861V13.3619H8.13058V7.59497Z" fill="#0033FF"/>
<path d="M16.5142 7.59497H23.0697V13.3619H16.5142V7.59497Z" fill="#0033FF"/>
<path d="M16.5142 15.1902H23.0697V20.9572H16.5142V15.1902Z" fill="#0033FF"/>
<path d="M8.13058 0H14.6861V5.767H8.13058V0Z" fill="#0033FF"/>
<path d="M24.8977 20.9572H31.2C31.2 19.2503 31.2 17.2531 31.2 15.1902H24.8977V20.9572Z" fill="#0033FF"/>
<path d="M30.286 0H24.8977V5.767H31.2V0.914002C31.2 0.409195 30.7908 0 30.286 0Z" fill="#0033FF"/>
<path d="M24.8977 13.3619H31.2C31.2 11.3736 31.2 9.38623 31.2 7.59497H24.8977V13.3619Z" fill="#0033FF"/>
<path d="M6.30237 7.59497H9.15527e-05V13.3619H6.30237V7.59497Z" fill="#0033FF"/>
<path d="M6.30237 15.1902H9.15527e-05V20.9572H6.30237V15.1902Z" fill="#0033FF"/>
<path d="M6.30228 0H0.914062C0.409256 0 0 0.409195 0 0.914002V5.767H6.30228V0Z" fill="#0033FF"/>
</g>
<defs>
<clipPath id="clip0_1_648">
<rect width="31.2" height="31.2" fill="white"/>
</clipPath>
</defs>
</svg>
