<svg width="32" height="32" viewBox="0 0 32 32" fill="none" xmlns="http://www.w3.org/2000/svg">
<g clip-path="url(#clip0_1_628)">
<path d="M15.6 0C11.0639 0 7.37347 3.69044 7.37347 8.22656C7.37347 12.7627 11.0639 16.4531 15.6 16.4531C20.1362 16.4531 23.8266 12.7627 23.8266 8.22656C23.8266 3.69044 20.1362 0 15.6 0Z" fill="#0033FF"/>
<path d="M25.8355 21.8275C23.5832 19.5406 20.5975 18.2812 17.4282 18.2812H13.7719C10.6027 18.2812 7.61686 19.5406 5.36461 21.8275C3.12339 24.1032 1.8891 27.107 1.8891 30.2859C1.8891 30.7907 2.29836 31.2 2.80316 31.2H28.3969C28.9017 31.2 29.311 30.7907 29.311 30.2859C29.311 27.107 28.0767 24.1032 25.8355 21.8275Z" fill="#0033FF"/>
</g>
<defs>
<clipPath id="clip0_1_628">
<rect width="31.2" height="31.2" fill="white"/>
</clipPath>
</defs>
</svg>
