<svg width="32" height="32" viewBox="0 0 32 32" fill="none" xmlns="http://www.w3.org/2000/svg">
<g clip-path="url(#clip0_1_640)">
<path d="M0.000587463 15.5997C0.000587463 21.7739 3.5888 27.1108 8.79306 29.6389L1.35144 9.25136C0.486164 11.1914 0.000587463 13.3382 0.000587463 15.5997ZM26.131 14.8129C26.131 12.8843 25.4383 11.5497 24.8448 10.5108C24.0542 9.22515 23.313 8.13783 23.313 6.85208C23.313 5.41812 24.3997 4.08349 25.9322 4.08349C26.0016 4.08349 26.0675 4.09192 26.1342 4.09618C23.3593 1.55317 19.6612 0.000244141 15.6001 0.000244141C10.1502 0.000244141 5.35576 2.7968 2.56616 7.03096C2.93276 7.04302 3.27784 7.05051 3.57028 7.05051C5.20152 7.05051 7.7282 6.85218 7.7282 6.85218C8.56884 6.80268 8.66764 8.0384 7.82763 8.13783C7.82763 8.13783 6.98221 8.23673 6.04268 8.28572L11.7231 25.1834L15.1371 14.9449L12.7068 8.28561C11.8662 8.23663 11.0709 8.13772 11.0709 8.13772C10.2302 8.0878 10.3285 6.80257 11.1697 6.85208C11.1697 6.85208 13.7453 7.0504 15.2782 7.0504C16.9095 7.0504 19.4361 6.85208 19.4361 6.85208C20.2767 6.80257 20.3762 8.0383 19.5355 8.13772C19.5355 8.13772 18.6892 8.23663 17.7507 8.28561L23.3878 25.0544L24.9438 19.856C25.7349 17.8287 26.131 16.1479 26.131 14.8129ZM15.8742 16.9643L11.1934 30.5648C12.591 30.9757 14.0692 31.2002 15.6001 31.2002C17.4171 31.2002 19.1594 30.8867 20.7806 30.3159C20.7395 30.2491 20.7006 30.1782 20.6691 30.1009L15.8742 16.9643ZM29.289 8.1162C29.3563 8.61269 29.3942 9.14559 29.3942 9.72008C29.3942 11.3024 29.0974 13.082 28.2074 15.3073L23.4429 29.083C28.0811 26.379 31.1995 21.3547 31.1995 15.5998C31.1995 12.8874 30.5062 10.3376 29.289 8.1162Z" fill="#0033FF"/>
</g>
<defs>
<clipPath id="clip0_1_640">
<rect width="31.2" height="31.2" fill="white"/>
</clipPath>
</defs>
</svg>
