<svg width="50" height="51" viewBox="0 0 50 51" fill="none" xmlns="http://www.w3.org/2000/svg">
<rect x="0.553192" y="0.759766" width="49.4468" height="49.4468" rx="24.7234" fill="#E8E9EB"/>
<path d="M25.2766 16.6533C20.3999 16.6533 16.4468 20.6064 16.4468 25.4831C16.4468 29.8901 19.6759 33.5429 23.8974 34.2061V28.0349H21.6546V25.4831H23.8974V23.5379C23.8974 21.3252 25.2148 20.1031 27.2324 20.1031C28.1984 20.1031 29.2085 20.2753 29.2085 20.2753V22.4474H28.096C26.9984 22.4474 26.6567 23.1282 26.6567 23.8266V25.4831H29.1052L28.7141 28.0349H26.6567V34.2061C30.8774 33.5438 34.1064 29.8892 34.1064 25.4831C34.1064 20.6064 30.1533 16.6533 25.2766 16.6533Z" fill="#080808"/>
</svg>
