<svg width="51" height="51" viewBox="0 0 51 51" fill="none" xmlns="http://www.w3.org/2000/svg">
<rect x="0.659576" y="0.759766" width="49.4468" height="49.4468" rx="24.7234" fill="#E8E9EB"/>
<path d="M20.915 19.303C20.9148 19.7713 20.7285 20.2204 20.3972 20.5514C20.0658 20.8825 19.6166 21.0683 19.1482 21.068C18.6798 21.0678 18.2307 20.8815 17.8997 20.5502C17.5687 20.2188 17.3829 19.7696 17.3831 19.3012C17.3834 18.8328 17.5696 18.3838 17.901 18.0527C18.2323 17.7217 18.6816 17.5359 19.15 17.5361C19.6183 17.5364 20.0674 17.7226 20.3984 18.054C20.7294 18.3853 20.9153 18.8346 20.915 19.303ZM20.968 22.3757H17.4361V33.4306H20.968V22.3757ZM26.5484 22.3757H23.0342V33.4306H26.5131V27.6295C26.5131 24.3978 30.7249 24.0975 30.7249 27.6295V33.4306H34.2127V26.4286C34.2127 20.9806 27.9789 21.1837 26.5131 23.8591L26.5484 22.3757Z" fill="#080808"/>
</svg>
