<svg width="50" height="51" viewBox="0 0 50 51" fill="none" xmlns="http://www.w3.org/2000/svg">
<rect x="0.106384" y="0.759766" width="49.4468" height="49.4468" rx="24.7234" fill="#E8E9EB"/>
<path d="M24.8298 34.3129C19.9531 34.3129 16 30.3598 16 25.4831C16 20.6064 19.9531 16.6533 24.8298 16.6533C29.7064 16.6533 33.6595 20.6064 33.6595 25.4831C33.6595 30.3598 29.7064 34.3129 24.8298 34.3129ZM22.0837 26.5162L22.0952 26.51L22.8634 29.0442C22.9623 29.3188 23.0982 29.3682 23.2634 29.3453C23.4294 29.3232 23.5168 29.234 23.6254 29.1298L24.6744 28.1162L26.9259 29.7832C27.3374 30.0101 27.6332 29.8927 27.7356 29.4018L29.1987 22.4951C29.3603 21.8523 29.0778 21.5945 28.5789 21.7993L19.9849 25.1193C19.3986 25.3542 19.4021 25.6827 19.8789 25.8284L22.0837 26.5171V26.5162Z" fill="#080808"/>
</svg>
